<?xml version="1.0" encoding="utf-8"?>
<!-- Generator: Adobe Illustrator 28.0.0, SVG Export Plug-In . SVG Version: 6.00 Build 0)  -->
<svg version="1.1" id="Capa_1" xmlns="http://www.w3.org/2000/svg" xmlns:xlink="http://www.w3.org/1999/xlink" x="0px" y="0px"
	 viewBox="0 0 239.5 52.7" style="enable-background:new 0 0 239.5 52.7;" xml:space="preserve">
<style type="text/css">
	.st0{fill:none;}
	.st1{fill:#1D71B8;}
</style>
<g>
	<g>
	</g>
</g>
<g>
	<g>
		<g>
			<path d="M13.8,1.6H16v17h-2.3V5.9l0.1,0.8l-4.2,9.6H7.9L3.7,6.9l0.1-1v12.8H1.5v-17h2.2l5,11.2L13.8,1.6z"/>
			<path d="M18.7,6.5h2.4l3.7,10.6l-1.3,2.6L18.7,6.5z M29.5,6.5l-5.2,15c-0.2,0.6-0.4,1-0.7,1.3s-0.7,0.6-1.1,0.7s-1,0.2-1.6,0.2
				h-0.5v-2.3h0.5c0.4,0,0.8-0.1,1.1-0.3s0.5-0.5,0.7-0.9L27,6.5H29.5z"/>
		</g>
	</g>
	<rect x="1" y="7.4" class="st0" width="30.6" height="1"/>
	<g>
		<g>
			<path class="st1" d="M1.1,27.1h3.6v25.6H1.1V27.1z M2.9,27.1h14.3v3.4H2.9V27.1z M2.9,38.5h12.4v3.4H2.9V38.5z"/>
			<path class="st1" d="M20.9,27.1h3.6v3.6h-3.6V27.1z M20.9,34.4h3.6v18.2h-3.6V34.4z"/>
			<path class="st1" d="M28.5,34.4h8.2v3.2h-8.2V34.4z M31.4,51.6c-0.7-0.8-1-2-1-3.6V29.1H34V48c0,0.4,0.1,0.8,0.3,1
				s0.4,0.4,0.8,0.4h1.7v3.4h-2.1C33.2,52.8,32.1,52.4,31.4,51.6z"/>
			<path class="st1" d="M41.7,34.4h3.6v18.2h-3.6V34.4z M52.7,41.6c0-1.3-0.3-2.3-1-3s-1.6-1.1-2.8-1.1c-1.2,0-2.1,0.3-2.7,0.9
				s-1,1.5-1,2.6l-0.4-3.5c0.6-1.1,1.3-2,2.2-2.5s1.9-0.9,3-0.9c2,0,3.5,0.6,4.6,1.9s1.6,3.1,1.6,5.5v11.1h-3.6V41.6z"/>
			<path class="st1" d="M64.9,52c-1.2-0.6-2.1-1.6-2.7-2.8s-0.9-2.7-0.9-4.4v-2.1c0-1.8,0.3-3.3,0.9-4.6s1.5-2.2,2.6-2.9
				c1.1-0.7,2.5-1,4.1-1c1.5,0,2.8,0.4,3.9,1.1s1.9,1.9,2.5,3.3s0.9,3.2,0.9,5.2V45H63.9v-2.9h8.9c-0.1-1.5-0.5-2.6-1.2-3.5
				s-1.5-1.2-2.7-1.2c-1.4,0-2.4,0.4-3.2,1.3s-1.1,2.2-1.1,3.8v2.3c0,1.5,0.4,2.7,1.2,3.5s1.9,1.2,3.4,1.2c0.7,0,1.4-0.1,2.2-0.4
				s1.4-0.7,1.9-1.2l2.4,2.4c-0.9,0.9-1.9,1.5-3,2S70.4,53,69.3,53C67.6,53,66.1,52.6,64.9,52z"/>
			<path class="st1" d="M84.5,52.6c-0.9-0.2-1.8-0.5-2.6-0.9s-1.6-0.9-2.3-1.6l2.1-2.6c1,0.8,2,1.3,2.9,1.7s1.9,0.6,2.9,0.6
				c1.4,0,2.5-0.2,3.2-0.7s1.1-1.1,1.1-2c0-0.6-0.2-1-0.6-1.3s-0.9-0.5-1.4-0.6s-1.4-0.2-2.4-0.3c-0.1,0-0.2,0-0.3,0s-0.2,0-0.3,0
				c0,0-0.1,0-0.1,0s-0.1,0-0.1,0c-1.2-0.1-2.2-0.3-3-0.5s-1.5-0.7-2-1.4s-0.8-1.7-0.8-3s0.3-2.4,0.8-3.2s1.3-1.5,2.4-1.9
				s2.3-0.6,3.9-0.6c0.9,0,1.9,0.1,2.7,0.3s1.7,0.4,2.5,0.8s1.5,0.8,2.3,1.3l-2.2,2.6c-0.9-0.6-1.8-1-2.7-1.3s-1.7-0.4-2.6-0.4
				c-1.2,0-2.1,0.2-2.7,0.6s-0.9,1-0.9,1.9c0,0.5,0.2,0.9,0.5,1.1s0.8,0.4,1.3,0.5s1.3,0.2,2.2,0.2c0.1,0,0.1,0,0.2,0s0.2,0,0.2,0
				c0,0,0.1,0,0.1,0s0.1,0,0.1,0c1.3,0.1,2.4,0.3,3.3,0.5s1.6,0.8,2.3,1.5s0.9,1.9,0.9,3.3c0,1.3-0.3,2.4-0.8,3.3s-1.4,1.5-2.5,1.9
				S89.2,53,87.5,53C86.5,53,85.4,52.8,84.5,52.6z"/>
			<path class="st1" d="M103.2,52.6c-0.9-0.2-1.8-0.5-2.6-0.9s-1.6-0.9-2.3-1.6l2.1-2.6c1,0.8,2,1.3,2.9,1.7s1.9,0.6,2.9,0.6
				c1.4,0,2.5-0.2,3.2-0.7s1.1-1.1,1.1-2c0-0.6-0.2-1-0.6-1.3s-0.9-0.5-1.4-0.6S107,45,106,44.9c-0.1,0-0.2,0-0.3,0s-0.2,0-0.3,0
				c0,0-0.1,0-0.1,0s-0.1,0-0.1,0c-1.2-0.1-2.2-0.3-3-0.5s-1.5-0.7-2-1.4s-0.8-1.7-0.8-3s0.3-2.4,0.8-3.2s1.3-1.5,2.4-1.9
				s2.3-0.6,3.9-0.6c0.9,0,1.9,0.1,2.7,0.3s1.7,0.4,2.5,0.8s1.5,0.8,2.3,1.3l-2.2,2.6c-0.9-0.6-1.8-1-2.7-1.3s-1.7-0.4-2.6-0.4
				c-1.2,0-2.1,0.2-2.7,0.6s-0.9,1-0.9,1.9c0,0.5,0.2,0.9,0.5,1.1s0.8,0.4,1.3,0.5s1.3,0.2,2.2,0.2c0.1,0,0.1,0,0.2,0s0.2,0,0.2,0
				c0,0,0.1,0,0.1,0s0.1,0,0.1,0c1.3,0.1,2.4,0.3,3.3,0.5s1.6,0.8,2.3,1.5s0.9,1.9,0.9,3.3c0,1.3-0.3,2.4-0.8,3.3s-1.4,1.5-2.5,1.9
				s-2.6,0.7-4.3,0.7C105.1,53,104.1,52.8,103.2,52.6z"/>
			<path class="st1" d="M115.3,27.1h18v3.4h-18V27.1z M122.5,29.2h3.6v23.5h-3.6V29.2z"/>
			<path class="st1" d="M135.7,34.4h3.6v18.2h-3.6V34.4z M144.6,37.9c-0.5-0.2-1-0.3-1.7-0.3c-1.1,0-2,0.3-2.6,0.9s-0.9,1.5-0.9,2.6
				l-0.4-3.5c0.6-1.1,1.3-1.9,2.2-2.5s1.9-0.9,3-0.9c0.8,0,1.6,0.1,2.3,0.4s1.3,0.6,1.8,1.1l-2.3,3.2
				C145.5,38.4,145.1,38.1,144.6,37.9z"/>
			<path class="st1" d="M151.9,51.6c-1.1-0.9-1.7-2.3-1.7-4.2c0-1.8,0.5-3.2,1.5-4.1s2.6-1.4,4.6-1.4h5.2l0.2,2.9h-5.4
				c-0.9,0-1.6,0.2-2.1,0.6s-0.7,1.1-0.7,1.9c0,0.9,0.3,1.6,0.9,2.1s1.5,0.7,2.8,0.7c1.4,0,2.4-0.1,3.1-0.4s1-0.8,1-1.4l0.4,2.6
				c-0.3,0.5-0.7,0.9-1.2,1.2s-1,0.6-1.6,0.7s-1.3,0.2-2.1,0.2C154.7,53,153,52.5,151.9,51.6z M161.4,41.1c0-1.2-0.3-2.1-1-2.8
				s-1.5-1-2.7-1c-0.7,0-1.4,0.1-2.1,0.3s-1.3,0.5-1.9,0.9l-2.6-1.8c0.7-0.8,1.6-1.5,2.7-1.9s2.4-0.7,3.8-0.7c1.5,0,2.8,0.3,3.9,0.8
				s1.9,1.3,2.5,2.3s0.8,2.2,0.8,3.7v11.7h-3.4V41.1z"/>
			<path class="st1" d="M173.4,52c-1.2-0.6-2.1-1.5-2.7-2.7s-0.9-2.6-0.9-4.3v-3c0-1.7,0.3-3.1,0.9-4.2s1.5-2.1,2.7-2.7
				s2.6-0.9,4.3-0.9c0.9,0,1.8,0.1,2.7,0.3s1.6,0.6,2.3,1s1.2,1,1.7,1.6l-2.6,2.3c-0.5-0.6-1.1-1-1.8-1.4s-1.4-0.5-2.2-0.5
				c-1.4,0-2.5,0.4-3.2,1.2s-1.1,1.9-1.1,3.3v3c0,1.4,0.4,2.6,1.1,3.3s1.8,1.2,3.2,1.2c0.8,0,1.5-0.2,2.2-0.5s1.3-0.8,1.8-1.4
				l2.6,2.5c-0.5,0.6-1,1.1-1.7,1.6s-1.4,0.8-2.3,1s-1.7,0.3-2.7,0.3C176,53,174.6,52.6,173.4,52z"/>
			<path class="st1" d="M188.2,27.1h3.6v25.6h-3.6V27.1z M189.7,45.8l9.4-11.3h4.2L189.5,50L189.7,45.8z M194,42.2l2.3-2.4l8,12.9
				h-3.9L194,42.2z"/>
			<path class="st1" d="M210.4,52c-1.2-0.6-2.1-1.6-2.7-2.8s-0.9-2.7-0.9-4.4v-2.1c0-1.8,0.3-3.3,0.9-4.6s1.5-2.2,2.6-2.9
				s2.5-1,4.1-1c1.5,0,2.8,0.4,3.9,1.1s1.9,1.9,2.5,3.3s0.9,3.2,0.9,5.2V45h-12.3v-2.9h8.9c-0.1-1.5-0.5-2.6-1.2-3.5
				s-1.5-1.2-2.7-1.2c-1.4,0-2.4,0.4-3.2,1.3s-1.1,2.2-1.1,3.8v2.3c0,1.5,0.4,2.7,1.2,3.5s1.9,1.2,3.4,1.2c0.7,0,1.4-0.1,2.2-0.4
				s1.4-0.7,1.9-1.2l2.4,2.4c-0.9,0.9-1.9,1.5-3,2s-2.3,0.7-3.4,0.7C213,53,211.6,52.6,210.4,52z"/>
			<path class="st1" d="M226.5,34.4h3.6v18.2h-3.6V34.4z M235.4,37.9c-0.5-0.2-1-0.3-1.7-0.3c-1.1,0-2,0.3-2.6,0.9s-0.9,1.5-0.9,2.6
				l-0.4-3.5c0.6-1.1,1.3-1.9,2.2-2.5s1.9-0.9,3-0.9c0.8,0,1.6,0.1,2.3,0.4s1.3,0.6,1.8,1.1l-2.3,3.2
				C236.3,38.4,235.9,38.1,235.4,37.9z"/>
		</g>
	</g>
</g>
</svg>
