<svg xmlns="http://www.w3.org/2000/svg" width="191" height="62" fill="none"><path fill="#000" d="M62.296 5.56c.746 0 1.346.107 1.8.32.466.213.96.54 1.48.98.173.133.306.2.4.2.253 0 .42-.407.5-1.22h.46c-.054.76-.08 2.093-.08 4h-.46a7.628 7.628 0 0 0-.4-1.34 3.378 3.378 0 0 0-.6-1.02c-.44-.507-.9-.893-1.38-1.16-.48-.267-1.067-.4-1.76-.4-.8 0-1.493.247-2.08.74-.587.48-1.04 1.173-1.36 2.08-.32.907-.48 1.973-.48 3.2 0 2.04.373 3.54 1.12 4.5.746.96 1.86 1.44 3.34 1.44.573 0 1.087-.053 1.54-.16.24-.053.4-.14.48-.26.093-.12.14-.287.14-.5v-1.72c0-.56-.053-.967-.16-1.22a.903.903 0 0 0-.56-.52c-.267-.093-.7-.153-1.3-.18v-.4c.72.04 1.66.06 2.82.06.906 0 1.6-.02 2.08-.06v.4c-.307.027-.527.08-.66.16s-.227.233-.28.46c-.053.227-.08.593-.08 1.1V18h-.4c-.027-.32-.127-.48-.3-.48-.08 0-.227.047-.44.14-.213.093-.36.153-.44.18a8.007 8.007 0 0 1-2.62.44c-2 0-3.547-.533-4.64-1.6-1.093-1.08-1.64-2.587-1.64-4.52 0-1.333.253-2.493.76-3.48.507-1 1.207-1.767 2.1-2.3.907-.547 1.94-.82 3.1-.82Zm17.182 10.76c.36.827.82 1.253 1.38 1.28v.4c-.533-.04-1.246-.06-2.14-.06-1.146 0-2 .02-2.56.06v-.4c.494-.027.854-.093 1.08-.2.24-.107.36-.287.36-.54 0-.213-.093-.527-.28-.94l-1.02-2.28h-4.86l-.68 1.5c-.226.52-.34.947-.34 1.28 0 .347.12.62.36.82.254.187.654.307 1.2.36v.4c-.4-.04-1.006-.06-1.82-.06-.813 0-1.393.02-1.74.06v-.4a1.74 1.74 0 0 0 .92-.6c.254-.32.494-.74.72-1.26l4.42-10h.32l4.68 10.58Zm-3.34-3.08-2.26-5.08-2.28 5.08h4.54Zm10.605-7c-.48.027-.834.08-1.06.16a.72.72 0 0 0-.44.46c-.08.227-.12.593-.12 1.1v7.92c0 .507.04.873.12 1.1a.72.72 0 0 0 .44.46c.226.067.58.1 1.06.1h1.26c.92 0 1.633-.273 2.14-.82.52-.547.833-1.453.94-2.72h.46c-.04.413-.06.96-.06 1.64 0 .693.046 1.48.14 2.36-.867-.04-2.327-.06-4.38-.06-2.467 0-4.334.02-5.6.06v-.4c.48-.027.826-.08 1.04-.16a.719.719 0 0 0 .46-.46c.08-.227.12-.593.12-1.1V7.96c0-.507-.04-.873-.12-1.1a.719.719 0 0 0-.46-.46c-.214-.08-.56-.133-1.04-.16v-.4c.56.04 1.413.06 2.56.06a42 42 0 0 0 2.54-.06v.4Zm16.205 9.4c0 .693.046 1.48.14 2.36-.867-.04-2.327-.06-4.38-.06-2.467 0-4.334.02-5.6.06v-.4c.48-.027.826-.08 1.04-.16a.72.72 0 0 0 .46-.46c.08-.227.12-.593.12-1.1V7.96c0-.507-.04-.873-.12-1.1a.72.72 0 0 0-.46-.46c-.214-.08-.56-.133-1.04-.16v-.4c1.266.04 3.133.06 5.6.06 1.866 0 3.193-.02 3.98-.06-.094.8-.14 1.52-.14 2.16 0 .52.02.933.06 1.24h-.46c-.094-1.093-.327-1.853-.7-2.28-.36-.44-.954-.66-1.78-.66h-1.46c-.48 0-.834.04-1.06.12a.66.66 0 0 0-.44.44c-.08.227-.12.593-.12 1.1v3.72h1.66c.426 0 .753-.107.98-.32.226-.227.38-.467.46-.72.08-.267.153-.6.22-1h.46c-.04.453-.06.947-.06 1.48v.76c0 .52.04 1.267.12 2.24h-.46c-.08-.64-.234-1.14-.46-1.5-.227-.36-.647-.54-1.26-.54h-1.66v3.8c0 .507.04.873.12 1.1a.72.72 0 0 0 .44.46c.226.067.58.1 1.06.1h1.46c.666 0 1.193-.107 1.58-.32.386-.213.68-.553.88-1.02.2-.48.34-1.147.42-2h.46c-.04.36-.06.84-.06 1.44Zm13.854 1.52c-.253.36-.547.64-.88.84-.32.187-.707.28-1.16.28-1.12 0-1.807-.507-2.06-1.52l-.62-2.5c-.187-.747-.467-1.247-.84-1.5-.36-.253-.9-.38-1.62-.38h-1.14v3.5c0 .507.04.873.12 1.1a.72.72 0 0 0 .44.46c.227.08.58.133 1.06.16v.4c-.613-.04-1.46-.06-2.54-.06-1.147 0-2 .02-2.56.06v-.4c.48-.027.827-.08 1.04-.16a.718.718 0 0 0 .46-.46c.08-.227.12-.593.12-1.1V7.96c0-.507-.04-.873-.12-1.1a.718.718 0 0 0-.46-.46c-.213-.08-.56-.133-1.04-.16v-.4c.56.04 1.373.06 2.44.06l2.04-.02c.227-.013.487-.02.78-.02 1.493 0 2.633.28 3.42.84.8.56 1.2 1.287 1.2 2.18 0 .773-.313 1.48-.94 2.12-.613.64-1.627 1.047-3.04 1.22.267.027.493.053.68.08.707.107 1.267.32 1.68.64.413.32.707.833.88 1.54l.44 1.82c.107.467.22.8.34 1 .133.187.3.28.5.28.333 0 .7-.227 1.1-.68l.28.26Zm-7.04-10.92c-.36 0-.633.047-.82.14-.173.093-.293.26-.36.5s-.1.6-.1 1.08v4.02h1.34c1.173 0 1.973-.247 2.4-.74.44-.507.66-1.22.66-2.14 0-.96-.247-1.673-.74-2.14-.48-.48-1.273-.72-2.38-.72Zm12.821 0c-.48.027-.834.08-1.06.16a.718.718 0 0 0-.44.46c-.08.227-.12.593-.12 1.1v7.92c0 .507.04.873.12 1.1.08.227.226.38.44.46.226.08.58.133 1.06.16v.4c-.614-.04-1.46-.06-2.54-.06-1.147 0-2 .02-2.56.06v-.4c.48-.027.826-.08 1.04-.16a.72.72 0 0 0 .46-.46c.08-.227.12-.593.12-1.1V7.96c0-.507-.04-.873-.12-1.1a.72.72 0 0 0-.46-.46c-.214-.08-.56-.133-1.04-.16v-.4c.56.04 1.413.06 2.56.06 1.066 0 1.913-.02 2.54-.06v.4Zm-.58-5.48c.213-.133.413-.2.6-.2.253 0 .46.113.62.34.08.12.12.247.12.38 0 .293-.18.553-.54.78-.28.173-.76.387-1.44.64-1 .4-1.86.78-2.58 1.14l-.14-.26a22.212 22.212 0 0 0 1.4-1.14c.4-.36.646-.58.74-.66.493-.467.9-.807 1.22-1.02Zm12.417 15.56c.36.827.82 1.253 1.38 1.28v.4c-.533-.04-1.247-.06-2.14-.06-1.147 0-2 .02-2.56.06v-.4c.493-.027.853-.093 1.08-.2.24-.107.36-.287.36-.54 0-.213-.093-.527-.28-.94l-1.02-2.28h-4.86l-.68 1.5c-.227.52-.34.947-.34 1.28 0 .347.12.62.36.82.253.187.653.307 1.2.36v.4c-.4-.04-1.007-.06-1.82-.06-.813 0-1.393.02-1.74.06v-.4a1.74 1.74 0 0 0 .92-.6c.253-.32.493-.74.72-1.26l4.42-10h.32l4.68 10.58Zm-3.34-3.08-2.26-5.08-2.28 5.08h4.54ZM8.55 33.984c-.767.043-1.332.128-1.695.256-.341.128-.576.373-.704.736s-.192.95-.192 1.76v15.872c0 .81.064 1.397.192 1.76s.363.608.704.736c.363.107.928.16 1.696.16h2.336c1.322 0 2.325-.181 3.008-.544.704-.384 1.216-.992 1.536-1.824.32-.832.555-2.037.704-3.616h.736c-.064.661-.096 1.536-.096 2.624 0 1.216.075 2.581.224 4.096-1.45-.064-3.893-.096-7.328-.096-4.096 0-7.19.032-9.28.096v-.64c.768-.043 1.323-.128 1.664-.256a1.15 1.15 0 0 0 .736-.736c.128-.363.192-.95.192-1.76V36.736c0-.81-.064-1.397-.192-1.76a1.15 1.15 0 0 0-.736-.736c-.341-.128-.896-.213-1.664-.256v-.64c.896.064 2.261.096 4.096.096 1.707 0 3.061-.032 4.064-.096v.64Zm20.861 2.112c1.963 0 3.68.395 5.152 1.184 1.494.768 2.646 1.91 3.456 3.424.811 1.493 1.216 3.285 1.216 5.376 0 2.048-.426 3.861-1.28 5.44-.832 1.557-1.994 2.773-3.488 3.648-1.493.853-3.189 1.28-5.088 1.28-1.962 0-3.69-.384-5.184-1.152-1.472-.79-2.613-1.93-3.424-3.424-.81-1.515-1.216-3.317-1.216-5.408 0-2.048.416-3.85 1.248-5.408.854-1.579 2.027-2.795 3.52-3.648 1.494-.875 3.19-1.312 5.088-1.312Zm-.128.576a5.257 5.257 0 0 0-3.456 1.248c-.981.81-1.738 1.952-2.272 3.424-.533 1.45-.8 3.115-.8 4.992 0 1.899.299 3.573.896 5.024.598 1.45 1.408 2.57 2.432 3.36 1.024.768 2.166 1.152 3.424 1.152 1.302 0 2.443-.405 3.424-1.216 1.003-.832 1.771-1.973 2.304-3.424.534-1.472.8-3.147.8-5.024 0-1.899-.298-3.573-.896-5.024-.597-1.45-1.408-2.56-2.432-3.328-1.024-.79-2.165-1.184-3.424-1.184Zm19.83-.576c.94 0 1.675.107 2.209.32.554.192 1.12.48 1.696.864.47.299.832.448 1.088.448.192 0 .341-.107.448-.32.106-.235.192-.597.256-1.088h.736c-.107 1.11-.16 3.072-.16 5.888h-.736c-.128-1.536-.63-2.837-1.504-3.904-.854-1.067-2.102-1.6-3.744-1.6-1.13 0-2.07.299-2.816.896-.725.597-1.088 1.355-1.088 2.272 0 .661.16 1.237.48 1.728.341.49.768.917 1.28 1.28.533.341 1.28.768 2.24 1.28l1.056.576c1.322.704 2.378 1.333 3.168 1.888.81.555 1.461 1.195 1.952 1.92.49.704.736 1.525.736 2.464 0 1.728-.63 3.072-1.888 4.032-1.237.939-2.795 1.408-4.672 1.408-1.024 0-1.867-.107-2.528-.32a9.132 9.132 0 0 1-1.856-.864c-.47-.299-.832-.448-1.088-.448-.192 0-.342.117-.448.352-.107.213-.192.565-.256 1.056h-.736c.085-1.045.128-3.392.128-7.04h.736c.15 1.984.682 3.584 1.6 4.8.917 1.216 2.325 1.824 4.224 1.824 1.067 0 1.984-.299 2.752-.896.79-.619 1.184-1.525 1.184-2.72 0-.704-.203-1.323-.608-1.856-.406-.555-.95-1.045-1.632-1.472-.683-.427-1.632-.96-2.848-1.6-1.75-.896-3.083-1.792-4-2.688-.917-.896-1.376-2.059-1.376-3.488 0-1.579.576-2.805 1.728-3.68 1.173-.875 2.602-1.312 4.288-1.312Zm23.815 10.752v5.76c0 .81.085 1.397.256 1.76.17.363.469.608.896.736.426.128 1.12.213 2.08.256V56c-1.11-.064-2.678-.096-4.704-.096-1.835 0-3.2.032-4.096.096v-.64c.768-.043 1.322-.128 1.664-.256a1.15 1.15 0 0 0 .736-.736c.128-.363.192-.95.192-1.76V36.736c0-.81-.064-1.397-.192-1.76a1.15 1.15 0 0 0-.736-.736c-.342-.128-.896-.213-1.664-.256v-.64c.896.064 2.197.096 3.904.096l3.456-.032c.405-.021.864-.032 1.376-.032 2.496 0 4.405.576 5.728 1.728 1.322 1.13 1.984 2.656 1.984 4.576a7.615 7.615 0 0 1-.8 3.392c-.512 1.067-1.398 1.963-2.656 2.688-1.238.725-2.891 1.088-4.96 1.088h-2.464Zm2.368-12.864c-.662 0-1.163.075-1.504.224-.32.15-.544.416-.672.8-.128.384-.192.96-.192 1.728v9.472h2.144c2.09 0 3.53-.555 4.32-1.664.81-1.13 1.216-2.635 1.216-4.512 0-2.07-.416-3.595-1.248-4.576-.811-.981-2.166-1.472-4.064-1.472Zm25.007 19.328c.576 1.323 1.312 2.005 2.208 2.048V56c-.853-.064-1.995-.096-3.424-.096-1.835 0-3.2.032-4.096.096v-.64c.79-.043 1.365-.15 1.728-.32.384-.17.576-.459.576-.864 0-.341-.15-.843-.448-1.504l-1.632-3.648H87.44l-1.088 2.4c-.362.832-.544 1.515-.544 2.048 0 .555.192.992.576 1.312.406.299 1.046.49 1.92.576V56c-.64-.064-1.61-.096-2.912-.096-1.301 0-2.23.032-2.784.096v-.64c.576-.15 1.067-.47 1.472-.96.406-.512.79-1.184 1.152-2.016l7.072-16h.512l7.488 16.928Zm-5.344-4.928-3.616-8.128-3.648 8.128h7.264Zm.704-19.968c.341-.213.662-.32.96-.32.405 0 .736.181.992.544.128.192.192.395.192.608 0 .47-.288.885-.864 1.248-.448.277-1.216.619-2.304 1.024-1.6.64-2.976 1.248-4.128 1.824l-.224-.416a35.036 35.036 0 0 0 2.24-1.824c.64-.576 1.035-.928 1.184-1.056.79-.747 1.44-1.29 1.952-1.632Zm15.788 8.768c-.768.043-1.333.128-1.696.256a1.153 1.153 0 0 0-.704.736c-.128.363-.192.95-.192 1.76v8.512c0 3.947-.181 6.73-.544 8.352-.363 1.557-1.067 2.805-2.112 3.744-1.045.939-2.379 1.408-4 1.408-.896 0-1.611-.17-2.144-.512-.576-.363-.864-.875-.864-1.536 0-.427.15-.79.448-1.088a1.48 1.48 0 0 1 1.088-.448c.427 0 .8.15 1.12.448.299.299.448.661.448 1.088 0 .277-.075.544-.224.8a2.063 2.063 0 0 1-.608.608c.256.043.544.064.864.064 1.451 0 2.453-.896 3.008-2.688.213-.683.352-1.525.416-2.528.085-1.003.128-2.603.128-4.8V39.936c0-.81-.064-1.397-.192-1.76a1.15 1.15 0 0 0-.736-.736c-.341-.128-.896-.213-1.664-.256v-.64c.896.064 2.261.096 4.096.096 1.707 0 3.061-.032 4.064-.096v.64Zm18.352 16.128c.576 1.323 1.312 2.005 2.208 2.048V56c-.853-.064-1.995-.096-3.424-.096-1.835 0-3.2.032-4.096.096v-.64c.789-.043 1.365-.15 1.728-.32.384-.17.576-.459.576-.864 0-.341-.149-.843-.448-1.504l-1.632-3.648h-7.776l-1.088 2.4c-.363.832-.544 1.515-.544 2.048 0 .555.192.992.576 1.312.405.299 1.045.49 1.92.576V56c-.64-.064-1.611-.096-2.912-.096s-2.229.032-2.784.096v-.64c.576-.15 1.067-.47 1.472-.96.405-.512.789-1.184 1.152-2.016l7.072-16h.512l7.488 16.928Zm-5.344-4.928-3.616-8.128-3.648 8.128h7.264Zm27.687 6.272c-.405.576-.875 1.024-1.408 1.344-.512.299-1.131.448-1.856.448-1.792 0-2.891-.81-3.296-2.432l-.992-4c-.299-1.195-.747-1.995-1.344-2.4-.576-.405-1.44-.608-2.592-.608h-1.824v5.6c0 .81.064 1.397.192 1.76s.363.608.704.736c.363.128.928.213 1.696.256V56c-.981-.064-2.336-.096-4.064-.096-1.835 0-3.2.032-4.096.096v-.64c.768-.043 1.323-.128 1.664-.256a1.15 1.15 0 0 0 .736-.736c.128-.363.192-.95.192-1.76V39.936c0-.81-.064-1.397-.192-1.76a1.15 1.15 0 0 0-.736-.736c-.341-.128-.896-.213-1.664-.256v-.64c.896.064 2.197.096 3.904.096l3.264-.032c.363-.021.779-.032 1.248-.032 2.389 0 4.213.448 5.472 1.344 1.28.896 1.92 2.059 1.92 3.488 0 1.237-.501 2.368-1.504 3.392-.981 1.024-2.603 1.675-4.864 1.952.427.043.789.085 1.088.128 1.131.17 2.027.512 2.688 1.024s1.131 1.333 1.408 2.464l.704 2.912c.171.747.352 1.28.544 1.6.213.299.48.448.8.448.533 0 1.12-.363 1.76-1.088l.448.416Zm-11.264-17.472c-.576 0-1.013.075-1.312.224-.277.15-.469.416-.576.8-.107.384-.16.96-.16 1.728v6.432h2.144c1.877 0 3.157-.395 3.84-1.184.704-.81 1.056-1.952 1.056-3.424 0-1.536-.395-2.677-1.184-3.424-.768-.768-2.037-1.152-3.808-1.152Zm22.436-1.088c1.962 0 3.68.395 5.152 1.184 1.493.768 2.645 1.91 3.456 3.424.81 1.493 1.216 3.285 1.216 5.376 0 2.048-.427 3.861-1.28 5.44-.832 1.557-1.995 2.773-3.488 3.648-1.494.853-3.19 1.28-5.088 1.28-1.963 0-3.691-.384-5.184-1.152-1.472-.79-2.614-1.93-3.424-3.424-.811-1.515-1.216-3.317-1.216-5.408 0-2.048.416-3.85 1.248-5.408.853-1.579 2.026-2.795 3.52-3.648 1.493-.875 3.189-1.312 5.088-1.312Zm-.128.576a5.254 5.254 0 0 0-3.456 1.248c-.982.81-1.739 1.952-2.272 3.424-.534 1.45-.8 3.115-.8 4.992 0 1.899.298 3.573.896 5.024.597 1.45 1.408 2.57 2.432 3.36 1.024.768 2.165 1.152 3.424 1.152 1.301 0 2.442-.405 3.424-1.216 1.002-.832 1.77-1.973 2.304-3.424.533-1.472.8-3.147.8-5.024 0-1.899-.299-3.573-.896-5.024-.598-1.45-1.408-2.56-2.432-3.328-1.024-.79-2.166-1.184-3.424-1.184Zm19.83-.576c.939 0 1.675.107 2.208.32.555.192 1.12.48 1.696.864.469.299.832.448 1.088.448.192 0 .341-.107.448-.32.107-.235.192-.597.256-1.088h.736c-.107 1.11-.16 3.072-.16 5.888h-.736c-.128-1.536-.629-2.837-1.504-3.904-.853-1.067-2.101-1.6-3.744-1.6-1.131 0-2.069.299-2.816.896-.725.597-1.088 1.355-1.088 2.272 0 .661.16 1.237.48 1.728.341.49.768.917 1.28 1.28.533.341 1.28.768 2.24 1.28l1.056.576c1.323.704 2.379 1.333 3.168 1.888.811.555 1.461 1.195 1.952 1.92.491.704.736 1.525.736 2.464 0 1.728-.629 3.072-1.888 4.032-1.237.939-2.795 1.408-4.672 1.408-1.024 0-1.867-.107-2.528-.32a9.124 9.124 0 0 1-1.856-.864c-.469-.299-.832-.448-1.088-.448-.192 0-.341.117-.448.352-.107.213-.192.565-.256 1.056h-.736c.085-1.045.128-3.392.128-7.04h.736c.149 1.984.683 3.584 1.6 4.8.917 1.216 2.325 1.824 4.224 1.824 1.067 0 1.984-.299 2.752-.896.789-.619 1.184-1.525 1.184-2.72 0-.704-.203-1.323-.608-1.856-.405-.555-.949-1.045-1.632-1.472-.683-.427-1.632-.96-2.848-1.6-1.749-.896-3.083-1.792-4-2.688-.917-.896-1.376-2.059-1.376-3.488 0-1.579.576-2.805 1.728-3.68 1.173-.875 2.603-1.312 4.288-1.312Z"/></svg>